# Blender 4.5.4 LTS
# www.blender.org
mtllib player.mtl
o 立方体
v -0.361092 0.142123 0.373816
v -0.263545 0.571084 0.236050
v -0.361092 0.142123 -0.370856
v -0.263545 0.571084 -0.227172
v 0.361092 0.142123 0.373816
v 0.263545 0.571084 0.236050
v 0.361092 0.142123 -0.370856
v 0.263545 0.571084 -0.227172
v -0.426426 0.110837 -0.223244
v -0.460242 0.095122 0.001156
v -0.426426 0.110837 0.225772
v -0.389309 0.229352 0.393450
v -0.380759 0.356604 0.371107
v -0.326441 0.483855 0.304511
v -0.289324 0.602370 0.138469
v -0.301275 0.618085 0.004764
v -0.289324 0.602370 -0.129158
v -0.326441 0.483855 -0.296836
v -0.380759 0.356604 -0.365187
v -0.389309 0.229352 -0.389287
v 0.216733 0.110837 -0.443650
v 0.000000 0.095122 -0.481656
v -0.216733 0.110837 -0.443650
v -0.153865 0.602370 -0.242473
v -0.000000 0.618085 -0.248718
v 0.153865 0.602370 -0.242473
v 0.326441 0.483855 -0.296836
v 0.380759 0.356604 -0.365187
v 0.389309 0.229352 -0.389287
v 0.426426 0.110837 0.225773
v 0.460242 0.095122 0.001156
v 0.426426 0.110837 -0.223244
v 0.289324 0.602370 -0.129158
v 0.301275 0.618085 0.004764
v 0.289324 0.602370 0.138469
v 0.326441 0.483855 0.304511
v 0.380759 0.356604 0.371107
v 0.389309 0.229352 0.393450
v -0.216733 0.110837 0.446178
v -0.000000 0.095122 0.483968
v 0.216733 0.110837 0.446178
v 0.153865 0.602370 0.251783
v 0.000000 0.618085 0.258246
v -0.153865 0.602370 0.251783
v -0.502425 0.220984 0.216203
v -0.488359 0.356604 0.204159
v -0.408283 0.492223 0.171600
v -0.543004 0.213699 0.001974
v -0.524387 0.356604 0.002960
v -0.433714 0.499508 0.003946
v -0.502425 0.220984 -0.212155
v -0.488359 0.356604 -0.198240
v -0.408283 0.492223 -0.163810
v -0.213591 0.220984 -0.506153
v -0.208092 0.356604 -0.469224
v -0.181376 0.492223 -0.368470
v 0.000000 0.213699 -0.549042
v 0.000000 0.356604 -0.504058
v -0.000000 0.499508 -0.389406
v 0.213591 0.220984 -0.506153
v 0.208092 0.356604 -0.469224
v 0.181376 0.492223 -0.368470
v 0.502425 0.220984 -0.212155
v 0.488359 0.356604 -0.198240
v 0.408283 0.492223 -0.163810
v 0.543004 0.213699 0.001974
v 0.524387 0.356604 0.002960
v 0.433714 0.499508 0.003946
v 0.502425 0.220984 0.216203
v 0.488359 0.356604 0.204159
v 0.408283 0.492223 0.171600
v 0.213591 0.220984 0.510201
v 0.208092 0.356604 0.475143
v 0.237533 0.496264 0.307605
v -0.000000 0.213699 0.552989
v -0.000000 0.356604 0.509977
v 0.000000 0.499508 0.443567
v -0.213591 0.220984 0.510201
v -0.208092 0.356604 0.475143
v -0.237533 0.496264 0.307605
v -0.244554 0.043895 -0.258046
v 0.000000 0.021229 -0.279386
v 0.244554 0.043895 -0.258046
v -0.262737 0.021229 0.000646
v -0.000000 -0.003513 0.000475
v 0.262737 0.021229 0.000646
v -0.244554 0.043895 0.259650
v -0.000000 0.021229 0.280677
v 0.244554 0.043895 0.259650
v 0.150412 0.669312 -0.117919
v 0.000000 0.691978 -0.117094
v -0.150413 0.669312 -0.117919
v 0.153447 0.691978 0.005273
v -0.000000 0.716720 0.005444
v -0.153447 0.691978 0.005273
v 0.150412 0.669312 0.128153
v -0.000000 0.691978 0.127641
v -0.150412 0.669312 0.128153
v 0.153865 0.584768 0.236761
v 0.000000 0.600483 0.243223
v -0.153865 0.584768 0.236761
v 0.237533 0.478662 0.291799
v 0.000000 0.508878 0.382274
v -0.237533 0.478662 0.291799
vn -0.8771 0.3345 0.3447
vn -0.9920 0.1259 -0.0008
vn -0.9219 0.1309 0.3645
vn -0.7142 0.6375 0.2889
vn -0.9429 0.3330 0.0002
vn -0.8759 0.3384 -0.3438
vn -0.9208 0.1359 -0.3657
vn -0.7126 0.6398 -0.2878
vn -0.6782 -0.3866 0.6250
vn -0.7989 -0.4984 0.3368
vn -0.6806 -0.3793 0.6268
vn -0.6313 0.3873 0.6719
vn -0.6862 0.1808 0.7046
vn -0.4087 0.6227 0.6672
vn -0.3808 0.7629 0.5225
vn -0.5099 0.8187 0.2641
vn -0.7646 0.6445 0.0002
vn -0.5085 0.8198 -0.2631
vn -0.4065 0.7893 -0.4602
vn -0.5215 0.6395 -0.5649
vn -0.6471 0.3727 -0.6651
vn -0.6841 0.1903 -0.7042
vn -0.8005 -0.4944 -0.3388
vn -0.6812 -0.3794 -0.6261
vn -0.6820 -0.3718 -0.6298
vn -0.8236 -0.5672 -0.0007
vn -0.7956 -0.5229 -0.3059
vn -0.7936 -0.5257 0.3062
vn -0.3426 0.2661 -0.9010
vn -0.0000 0.4546 -0.8907
vn -0.0000 0.3003 -0.9539
vn -0.2418 0.6767 -0.6955
vn -0.3202 0.4285 -0.8449
vn 0.3426 0.2661 -0.9010
vn 0.2418 0.6767 -0.6955
vn 0.3202 0.4285 -0.8449
vn -0.3280 -0.4498 -0.8307
vn -0.3422 -0.4563 -0.8214
vn -0.2095 0.8191 -0.5340
vn -0.0000 0.6961 -0.7179
vn 0.2095 0.8191 -0.5340
vn 0.4065 0.7893 -0.4602
vn 0.5215 0.6395 -0.5649
vn 0.6471 0.3727 -0.6651
vn 0.6841 0.1903 -0.7042
vn 0.3280 -0.4498 -0.8307
vn 0.6820 -0.3718 -0.6298
vn 0.3421 -0.4563 -0.8214
vn -0.0000 -0.4925 -0.8703
vn 0.8759 0.3384 -0.3438
vn 0.9920 0.1259 -0.0008
vn 0.9208 0.1359 -0.3657
vn 0.7126 0.6398 -0.2878
vn 0.9429 0.3330 0.0002
vn 0.8771 0.3345 0.3447
vn 0.9219 0.1309 0.3645
vn 0.7142 0.6375 0.2889
vn 0.6812 -0.3794 -0.6261
vn 0.8005 -0.4944 -0.3388
vn 0.5085 0.8198 -0.2631
vn 0.7646 0.6445 0.0002
vn 0.5099 0.8187 0.2641
vn 0.3808 0.7629 0.5225
vn 0.4087 0.6227 0.6672
vn 0.6313 0.3873 0.6719
vn 0.6862 0.1808 0.7046
vn 0.7989 -0.4984 0.3368
vn 0.6782 -0.3866 0.6250
vn 0.6806 -0.3793 0.6268
vn 0.8236 -0.5672 -0.0007
vn 0.7936 -0.5257 0.3062
vn 0.7956 -0.5229 -0.3059
vn 0.3443 0.2545 0.9037
vn -0.0000 0.3475 0.9377
vn -0.0000 0.2882 0.9576
vn 0.3507 0.4348 0.8295
vn 0.2597 0.5531 0.7916
vn -0.3443 0.2545 0.9037
vn -0.2597 0.5531 0.7916
vn -0.3507 0.4348 0.8295
vn 0.3261 -0.4589 0.8265
vn 0.3407 -0.4652 0.8170
vn 0.2513 0.6445 0.7221
vn 0.0343 -0.6488 0.7602
vn -0.0000 -0.6492 0.7606
vn 0.1711 0.7253 -0.6668
vn -0.0000 0.9936 0.1127
vn 0.1946 0.6554 -0.7298
vn -0.2513 0.6445 0.7221
vn -0.3261 -0.4589 0.8265
vn -0.3407 -0.4652 0.8170
vn -0.0000 -0.5015 0.8651
vn -0.2421 -0.9422 -0.2317
vn -0.0000 -1.0000 -0.0001
vn -0.2310 -0.9730 -0.0001
vn 0.2421 -0.9422 -0.2317
vn -0.0000 -0.9742 -0.2255
vn -0.2413 -0.9426 0.2307
vn 0.2413 -0.9426 0.2307
vn -0.0000 -0.9745 0.2245
vn -0.3753 -0.8554 -0.3571
vn -0.3681 -0.9078 -0.2011
vn -0.2145 -0.9096 -0.3559
vn 0.2145 -0.9096 -0.3559
vn -0.0000 -0.9393 -0.3431
vn 0.3753 -0.8554 -0.3571
vn 0.3681 -0.9078 -0.2011
vn 0.2310 -0.9730 -0.0001
vn 0.3672 -0.9082 0.2008
vn 0.3737 -0.8567 0.3556
vn 0.2137 -0.9104 0.3544
vn -0.0000 -0.9398 0.3416
vn -0.2137 -0.9104 0.3544
vn -0.3737 -0.8567 0.3556
vn -0.3672 -0.9082 0.2008
vn -0.3504 -0.9366 0.0001
vn -0.0000 0.9404 -0.3400
vn 0.3008 0.9537 0.0003
vn 0.2667 0.9113 -0.3138
vn -0.3008 0.9537 0.0003
vn -0.0000 1.0000 0.0004
vn -0.0000 0.9397 0.3419
vn 0.2675 0.9105 0.3154
vn -0.0000 0.8257 -0.5642
vn -0.2667 0.9113 -0.3138
vn -0.5570 0.8305 0.0002
vn -0.2675 0.9105 0.3154
vn -0.2433 0.8249 0.5103
vn -0.0000 0.8753 0.4836
vn 0.2433 0.8249 0.5103
vn 0.5570 0.8305 0.0002
vn 0.2627 0.7132 0.6498
vn -0.0000 0.7715 0.6362
vn 0.3448 0.6319 0.6941
vn -0.2627 0.7132 0.6498
vn -0.3448 0.6319 0.6941
vn 0.8006 -0.3994 0.4466
vn 0.7996 -0.3909 0.4560
vn 0.7994 -0.3900 0.4570
vn -0.8006 -0.3994 0.4466
vn -0.7996 -0.3909 0.4560
vn -0.8007 -0.4002 0.4457
vn -0.1711 0.7253 -0.6668
vn -0.0000 0.9885 0.1511
vn -0.0343 -0.6488 0.7602
vn -0.8200 -0.5723 0.0005
vn -0.0000 -0.4941 -0.8694
vn 0.8200 -0.5723 0.0005
vn -0.0000 -0.5031 0.8642
vn 0.3504 -0.9366 0.0001
vn -0.0000 0.8351 0.5501
vn 0.8007 -0.4002 0.4457
vn -0.7994 -0.3900 0.4570
vn -0.1946 0.6554 -0.7298
vt 0.500000 0.062500
vt 0.437500 0.125000
vt 0.437500 0.062500
vt 0.562500 0.062500
vt 0.500000 0.125000
vt 0.500000 0.187500
vt 0.437500 0.187500
vt 0.562500 0.187500
vt 0.437500 0.000000
vt 0.375000 0.062500
vt 0.375000 0.000000
vt 0.500000 0.000000
vt 0.562500 0.000000
vt 0.625000 0.000000
vt 0.625000 0.062500
vt 0.562500 0.125000
vt 0.625000 0.187500
vt 0.625000 0.250000
vt 0.562500 0.250000
vt 0.500000 0.250000
vt 0.437500 0.250000
vt 0.375000 0.187500
vt 0.375000 0.250000
vt 0.375000 0.125000
vt 0.437500 0.312500
vt 0.500000 0.375000
vt 0.437500 0.375000
vt 0.562500 0.312500
vt 0.500000 0.312500
vt 0.437500 0.437500
vt 0.562500 0.437500
vt 0.500000 0.437500
vt 0.375000 0.312500
vt 0.625000 0.312500
vt 0.562500 0.375000
vt 0.625000 0.437500
vt 0.625000 0.500000
vt 0.562500 0.500000
vt 0.500000 0.500000
vt 0.437500 0.500000
vt 0.375000 0.500000
vt 0.375000 0.437500
vt 0.375000 0.375000
vt 0.500000 0.562500
vt 0.437500 0.625000
vt 0.437500 0.562500
vt 0.562500 0.562500
vt 0.500000 0.625000
vt 0.500000 0.687500
vt 0.437500 0.687500
vt 0.562500 0.687500
vt 0.375000 0.562500
vt 0.625000 0.562500
vt 0.562500 0.625000
vt 0.625000 0.687500
vt 0.625000 0.750000
vt 0.562500 0.750000
vt 0.500000 0.750000
vt 0.437500 0.750000
vt 0.375000 0.687500
vt 0.375000 0.750000
vt 0.375000 0.625000
vt 0.437500 0.812500
vt 0.500000 0.875000
vt 0.437500 0.875000
vt 0.500000 0.812500
vt 0.562500 0.875000
vt 0.437500 0.937500
vt 0.500000 0.937500
vt 0.375000 0.812500
vt 0.562500 0.812500
vt 0.812500 0.750000
vt 0.750000 0.750000
vt 0.562500 0.937500
vt 0.625000 1.000000
vt 0.562500 1.000000
vt 0.500000 1.000000
vt 0.437500 1.000000
vt 0.375000 1.000000
vt 0.375000 0.937500
vt 0.375000 0.875000
vt 0.187500 0.562500
vt 0.250000 0.625000
vt 0.187500 0.625000
vt 0.312500 0.562500
vt 0.250000 0.562500
vt 0.187500 0.687500
vt 0.312500 0.687500
vt 0.250000 0.687500
vt 0.125000 0.500000
vt 0.125000 0.562500
vt 0.187500 0.500000
vt 0.312500 0.500000
vt 0.250000 0.500000
vt 0.312500 0.625000
vt 0.312500 0.750000
vt 0.250000 0.750000
vt 0.187500 0.750000
vt 0.125000 0.750000
vt 0.125000 0.687500
vt 0.125000 0.625000
vt 0.750000 0.562500
vt 0.687500 0.625000
vt 0.687500 0.562500
vt 0.812500 0.625000
vt 0.750000 0.625000
vt 0.750000 0.687500
vt 0.687500 0.687500
vt 0.687500 0.500000
vt 0.750000 0.500000
vt 0.812500 0.562500
vt 0.812500 0.500000
vt 0.875000 0.562500
vt 0.875000 0.625000
vt 0.812500 0.687500
vt 0.875000 0.687500
vt 0.687500 0.750000
vt 0.625000 0.625000
vt 0.625000 0.812500
vt 0.625000 0.937500
vt 0.625000 0.125000
vt 0.625000 0.375000
vt 0.875000 0.500000
vt 0.875000 0.750000
vt 0.625000 0.875000
s 1
f 46/1/1 48/2/2 45/3/3
f 47/4/4 49/5/5 46/1/1
f 48/2/2 52/6/6 51/7/7
f 49/5/5 53/8/8 52/6/6
f 12/9/9 11/10/10 1/11/11
f 13/12/12 45/3/3 12/9/13
f 14/13/14 46/1/1 13/12/12
f 2/14/15 47/4/4 14/13/14
f 15/15/16 50/16/17 47/4/4
f 50/16/17 17/17/18 53/8/8
f 53/8/8 4/18/19 18/19/20
f 52/6/6 18/19/20 19/20/21
f 51/7/7 19/20/21 20/21/22
f 9/22/23 20/21/24 3/23/25
f 10/24/26 51/7/27 9/22/23
f 45/3/28 10/24/26 11/10/10
f 54/25/29 58/26/30 57/27/31
f 56/28/32 58/26/30 55/29/33
f 58/26/30 60/30/34 57/27/31
f 58/26/30 62/31/35 61/32/36
f 3/23/25 54/25/37 23/33/38
f 20/21/22 55/29/33 54/25/29
f 19/20/21 56/28/32 55/29/33
f 4/18/19 56/28/32 18/19/20
f 24/34/39 59/35/40 56/28/32
f 59/35/40 26/36/41 62/31/35
f 62/31/35 8/37/42 27/38/43
f 62/31/35 28/39/44 61/32/36
f 61/32/36 29/40/45 60/30/34
f 60/30/46 7/41/47 21/42/48
f 22/43/49 60/30/46 21/42/48
f 54/25/37 22/43/49 23/33/38
f 64/44/50 66/45/51 63/46/52
f 65/47/53 67/48/54 64/44/50
f 66/45/51 70/49/55 69/50/56
f 67/48/54 71/51/57 70/49/55
f 29/40/58 32/52/59 7/41/47
f 28/39/44 63/46/52 29/40/45
f 27/38/43 64/44/50 28/39/44
f 8/37/42 65/47/53 27/38/43
f 33/53/60 68/54/61 65/47/53
f 68/54/61 35/55/62 71/51/57
f 71/51/57 6/56/63 36/57/64
f 70/49/55 36/57/64 37/58/65
f 69/50/56 37/58/65 38/59/66
f 30/60/67 38/59/68 5/61/69
f 31/62/70 69/50/71 30/60/67
f 63/46/72 31/62/70 32/52/59
f 72/63/73 76/64/74 75/65/75
f 73/66/76 77/67/77 76/64/74
f 76/64/74 78/68/78 75/65/75
f 77/67/79 79/69/80 76/64/74
f 5/61/69 72/63/81 41/70/82
f 38/59/66 73/66/76 72/63/73
f 37/58/65 74/71/83 73/66/76
f 6/56/63 74/71/83 36/57/64
f 44/72/84 100/73/85 43/73/85
f 80/74/86 103/67/87 104/74/88
f 80/74/89 2/75/15 14/76/14
f 80/74/89 13/77/12 79/69/80
f 79/69/80 12/78/13 78/68/78
f 78/68/90 1/79/11 39/80/91
f 40/81/92 78/68/90 39/80/91
f 72/63/81 40/81/92 41/70/82
f 81/82/93 85/83/94 84/84/95
f 83/85/96 85/83/94 82/86/97
f 85/83/94 87/87/98 84/84/95
f 85/83/94 89/88/99 88/89/100
f 3/90/101 81/82/93 9/91/102
f 23/92/103 82/86/97 81/82/93
f 21/93/104 82/86/97 22/94/105
f 7/41/106 83/85/96 21/93/104
f 32/52/107 86/95/108 83/85/96
f 86/95/108 30/60/109 89/88/99
f 89/88/99 5/61/110 41/96/111
f 88/89/100 41/96/111 40/97/112
f 88/89/100 39/98/113 87/87/98
f 87/87/98 1/99/114 11/100/115
f 84/84/95 11/100/115 10/101/116
f 9/91/102 84/84/95 10/101/116
f 91/102/117 93/103/118 90/104/119
f 91/102/117 95/105/120 94/106/121
f 93/103/118 97/107/122 96/108/123
f 95/105/120 97/107/122 94/106/121
f 26/109/41 33/53/60 8/37/42
f 25/110/124 90/104/119 26/109/41
f 25/110/124 92/111/125 91/102/117
f 24/112/39 17/113/18 92/111/125
f 92/111/125 16/114/126 95/105/120
f 16/114/126 98/115/127 95/105/120
f 15/116/16 44/72/128 98/115/127
f 98/115/127 43/73/129 97/107/122
f 96/108/123 43/73/129 42/117/130
f 35/55/62 42/117/130 6/56/63
f 34/118/131 96/108/123 35/55/62
f 90/104/119 34/118/131 33/53/60
f 99/119/132 103/67/133 102/71/134
f 103/67/133 101/120/135 104/74/136
f 80/74/137 101/120/138 44/120/139
f 74/71/140 99/119/141 102/71/142
f 74/71/143 103/67/87 77/67/144
f 42/117/145 100/73/85 99/117/145
f 46/1/1 49/5/5 48/2/2
f 47/4/4 50/16/17 49/5/5
f 48/2/2 49/5/5 52/6/6
f 49/5/5 50/16/17 53/8/8
f 12/9/9 45/3/28 11/10/10
f 13/12/12 46/1/1 45/3/3
f 14/13/14 47/4/4 46/1/1
f 2/14/15 15/15/16 47/4/4
f 15/15/16 16/121/126 50/16/17
f 50/16/17 16/121/126 17/17/18
f 53/8/8 17/17/18 4/18/19
f 52/6/6 53/8/8 18/19/20
f 51/7/7 52/6/6 19/20/21
f 9/22/23 51/7/27 20/21/24
f 10/24/26 48/2/146 51/7/27
f 45/3/28 48/2/146 10/24/26
f 54/25/29 55/29/33 58/26/30
f 56/28/32 59/35/40 58/26/30
f 58/26/30 61/32/36 60/30/34
f 58/26/30 59/35/40 62/31/35
f 3/23/25 20/21/24 54/25/37
f 20/21/22 19/20/21 55/29/33
f 19/20/21 18/19/20 56/28/32
f 4/18/19 24/34/39 56/28/32
f 24/34/39 25/122/124 59/35/40
f 59/35/40 25/122/124 26/36/41
f 62/31/35 26/36/41 8/37/42
f 62/31/35 27/38/43 28/39/44
f 61/32/36 28/39/44 29/40/45
f 60/30/46 29/40/58 7/41/47
f 22/43/49 57/27/147 60/30/46
f 54/25/37 57/27/147 22/43/49
f 64/44/50 67/48/54 66/45/51
f 65/47/53 68/54/61 67/48/54
f 66/45/51 67/48/54 70/49/55
f 67/48/54 68/54/61 71/51/57
f 29/40/58 63/46/72 32/52/59
f 28/39/44 64/44/50 63/46/52
f 27/38/43 65/47/53 64/44/50
f 8/37/42 33/53/60 65/47/53
f 33/53/60 34/118/131 68/54/61
f 68/54/61 34/118/131 35/55/62
f 71/51/57 35/55/62 6/56/63
f 70/49/55 71/51/57 36/57/64
f 69/50/56 70/49/55 37/58/65
f 30/60/67 69/50/71 38/59/68
f 31/62/70 66/45/148 69/50/71
f 63/46/72 66/45/148 31/62/70
f 72/63/73 73/66/76 76/64/74
f 73/66/76 74/71/83 77/67/77
f 76/64/74 79/69/80 78/68/78
f 77/67/79 80/74/89 79/69/80
f 5/61/69 38/59/68 72/63/81
f 38/59/66 37/58/65 73/66/76
f 37/58/65 36/57/64 74/71/83
f 6/56/63 42/119/130 74/71/83
f 44/72/84 101/72/84 100/73/85
f 80/74/86 77/67/144 103/67/87
f 80/74/89 44/120/128 2/75/15
f 80/74/89 14/76/14 13/77/12
f 79/69/80 13/77/12 12/78/13
f 78/68/90 12/78/9 1/79/11
f 40/81/92 75/65/149 78/68/90
f 72/63/81 75/65/149 40/81/92
f 81/82/93 82/86/97 85/83/94
f 83/85/96 86/95/108 85/83/94
f 85/83/94 88/89/100 87/87/98
f 85/83/94 86/95/108 89/88/99
f 3/90/101 23/92/103 81/82/93
f 23/92/103 22/94/105 82/86/97
f 21/93/104 83/85/96 82/86/97
f 7/41/106 32/52/107 83/85/96
f 32/52/107 31/62/150 86/95/108
f 86/95/108 31/62/150 30/60/109
f 89/88/99 30/60/109 5/61/110
f 88/89/100 89/88/99 41/96/111
f 88/89/100 40/97/112 39/98/113
f 87/87/98 39/98/113 1/99/114
f 84/84/95 87/87/98 11/100/115
f 9/91/102 81/82/93 84/84/95
f 91/102/117 94/106/121 93/103/118
f 91/102/117 92/111/125 95/105/120
f 93/103/118 94/106/121 97/107/122
f 95/105/120 98/115/127 97/107/122
f 26/109/41 90/104/119 33/53/60
f 25/110/124 91/102/117 90/104/119
f 25/110/124 24/112/39 92/111/125
f 24/112/39 4/123/19 17/113/18
f 92/111/125 17/113/18 16/114/126
f 16/114/126 15/116/16 98/115/127
f 15/116/16 2/124/15 44/72/128
f 98/115/127 44/72/128 43/73/129
f 96/108/123 97/107/122 43/73/129
f 35/55/62 96/108/123 42/117/130
f 34/118/131 93/103/118 96/108/123
f 90/104/119 93/103/118 34/118/131
f 99/119/132 100/125/151 103/67/133
f 103/67/133 100/125/151 101/120/135
f 80/74/137 104/74/152 101/120/138
f 74/71/140 42/119/153 99/119/141
f 74/71/143 102/71/154 103/67/87
f 42/117/145 43/73/85 100/73/85
