{
	"asset":{
		"generator":"Khronos glTF Blender I/O v4.4.56",
		"version":"2.0"
	},
	"scene":0,
	"scenes":[
		{
			"name":"Scene",
			"nodes":[
				0
			]
		}
	],
	"nodes":[
		{
			"mesh":0,
			"name":"Suzanne"
		}
	],
	"meshes":[
		{
			"name":"Suzanne",
			"primitives":[
				{
					"attributes":{
						"POSITION":0,
						"NORMAL":1,
						"TEXCOORD_0":2
					},
					"indices":3
				}
			]
		}
	],
	"accessors":[
		{
			"bufferView":0,
			"componentType":5126,
			"count":32049,
			"max":[
				1.3287925720214844,
				0.9392362236976624,
				0.8226352334022522
			],
			"min":[
				-1.328792691230774,
				-0.971822202205658,
				-0.7782661318778992
			],
			"type":"VEC3"
		},
		{
			"bufferView":1,
			"componentType":5126,
			"count":32049,
			"type":"VEC3"
		},
		{
			"bufferView":2,
			"componentType":5126,
			"count":32049,
			"type":"VEC2"
		},
		{
			"bufferView":3,
			"componentType":5123,
			"count":188928,
			"type":"SCALAR"
		}
	],
	"bufferViews":[
		{
			"buffer":0,
			"byteLength":384588,
			"byteOffset":0,
			"target":34962
		},
		{
			"buffer":0,
			"byteLength":384588,
			"byteOffset":384588,
			"target":34962
		},
		{
			"buffer":0,
			"byteLength":256392,
			"byteOffset":769176,
			"target":34962
		},
		{
			"buffer":0,
			"byteLength":377856,
			"byteOffset":1025568,
			"target":34963
		}
	],
	"buffers":[
		{
			"byteLength":1403424,
			"uri":"Suzanne.bin"
		}
	]
}
